<?xml version="1.0" encoding="UTF-8"?>
<!DOCTYPE svg PUBLIC "-//W3C//DTD SVG 1.1//EN" "http://www.w3.org/Graphics/SVG/1.1/DTD/svg11.dtd">
<svg xmlns="http://www.w3.org/2000/svg" version="1.1" width="2048px" height="2048px" style="shape-rendering:geometricPrecision; text-rendering:geometricPrecision; image-rendering:optimizeQuality; fill-rule:evenodd; clip-rule:evenodd" xmlns:xlink="http://www.w3.org/1999/xlink">
<g><path style="opacity:0.999" fill="#fefefe" d="M 980.5,-0.5 C 1009.17,-0.5 1037.83,-0.5 1066.5,-0.5C 1319.51,13.558 1538.84,105.725 1724.5,276C 1923.87,467.965 2031.54,702.799 2047.5,980.5C 2047.5,1009.17 2047.5,1037.83 2047.5,1066.5C 2033.52,1319.01 1941.69,1538.01 1772,1723.5C 1595.65,1908.09 1379.82,2014.59 1124.5,2043C 1105.02,2044.59 1085.68,2046.09 1066.5,2047.5C 1037.83,2047.5 1009.17,2047.5 980.5,2047.5C 727.993,2033.52 508.993,1941.69 323.5,1772C 123.855,1580.14 15.8545,1345.3 -0.5,1067.5C -0.5,1038.17 -0.5,1008.83 -0.5,979.5C 15.8455,701.692 123.846,466.859 323.5,275C 509.001,105.304 728.001,13.4709 980.5,-0.5 Z"/></g>
<g><path style="opacity:1" fill="#8bc34a" d="M 1350.5,779.5 C 1351.77,778.91 1353.1,778.41 1354.5,778C 1349.32,777.184 1344.32,777.35 1339.5,778.5C 1161.68,789.388 996.35,840.221 843.5,931C 666.642,1041.43 543.642,1195.26 474.5,1392.5C 435.459,1351.46 404.626,1304.8 382,1252.5C 353.811,1186.18 351.144,1118.84 374,1050.5C 418.052,922.466 496.552,821.299 609.5,747C 674.507,705.768 744.841,677.434 820.5,662C 880.226,650.157 940.226,639.823 1000.5,631C 1095.54,617.572 1190.54,603.906 1285.5,590C 1361.96,578.888 1437.63,563.888 1512.5,545C 1547.11,535.575 1580.78,523.575 1613.5,509C 1636.48,498.344 1656.98,484.178 1675,466.5C 1680.07,460.687 1684.41,454.354 1688,447.5C 1688.65,446.304 1689.15,446.304 1689.5,447.5C 1651.86,627.924 1594.69,801.924 1518,969.5C 1468.82,1075.62 1408.82,1174.62 1338,1266.5C 1281.52,1338.98 1216.02,1401.82 1141.5,1455C 1036.3,1527.74 919.636,1568.07 791.5,1576C 761.977,1578.76 732.977,1576.09 704.5,1568C 692.453,1564.76 680.62,1560.93 669,1556.5C 647.687,1606.96 626.52,1657.46 605.5,1708C 604.167,1708.67 602.833,1708.67 601.5,1708C 560.91,1693.86 520.243,1680.03 479.5,1666.5C 513.611,1575.94 550.778,1486.6 591,1398.5C 628.215,1318.43 672.215,1242.76 723,1171.5C 829.041,1026.47 964.875,918.97 1130.5,849C 1201.57,818.731 1274.91,795.564 1350.5,779.5 Z"/></g>
<g><path style="opacity:1" fill="#c5e1a4" d="M 1339.5,778.5 C 1344.32,777.35 1349.32,777.184 1354.5,778C 1353.1,778.41 1351.77,778.91 1350.5,779.5C 1347.04,778.518 1343.37,778.185 1339.5,778.5 Z"/></g>
</svg>
